ffmpeg version 3.4.8-0ubuntu0.2 Copyright (c) 2000-2020 the FFmpeg developers
  built with gcc 7 (Ubuntu 7.5.0-3ubuntu1~18.04)
  configuration: --prefix=/usr --extra-version=0ubuntu0.2 --toolchain=hardened --libdir=/usr/lib/x86_64-linux-gnu --incdir=/usr/include/x86_64-linux-gnu --enable-gpl --disable-stripping --enable-avresample --enable-avisynth --enable-gnutls --enable-ladspa --enable-libass --enable-libbluray --enable-libbs2b --enable-libcaca --enable-libcdio --enable-libflite --enable-libfontconfig --enable-libfreetype --enable-libfribidi --enable-libgme --enable-libgsm --enable-libmp3lame --enable-libmysofa --enable-libopenjpeg --enable-libopenmpt --enable-libopus --enable-libpulse --enable-librubberband --enable-librsvg --enable-libshine --enable-libsnappy --enable-libsoxr --enable-libspeex --enable-libssh --enable-libtheora --enable-libtwolame --enable-libvorbis --enable-libvpx --enable-libwavpack --enable-libwebp --enable-libx265 --enable-libxml2 --enable-libxvid --enable-libzmq --enable-libzvbi --enable-omx --enable-openal --enable-opengl --enable-sdl2 --enable-libdc1394 --enable-libdrm --enable-libiec61883 --enable-chromaprint --enable-frei0r --enable-libopencv --enable-libx264 --enable-shared
  libavutil      55. 78.100 / 55. 78.100
  libavcodec     57.107.100 / 57.107.100
  libavformat    57. 83.100 / 57. 83.100
  libavdevice    57. 10.100 / 57. 10.100
  libavfilter     6.107.100 /  6.107.100
  libavresample   3.  7.  0 /  3.  7.  0
  libswscale      4.  8.100 /  4.  8.100
  libswresample   2.  9.100 /  2.  9.100
  libpostproc    54.  7.100 / 54.  7.100
[rawvideo @ 0x55a8c5c0da20] Estimating duration from bitrate, this may be inaccurate
Input #0, rawvideo, from '../../SVC-Encoder-20220109T061506Z-001/SVC-Encoder/Dataset/RollerCoaster/ERP_8x8/tile_yuv/Tile_14_480x240.yuv':
  Duration: 00:00:10.00, start: 0.000000, bitrate: 41472 kb/s
    Stream #0:0: Video: rawvideo (I420 / 0x30323449), yuv420p, 480x240, 41472 kb/s, 30 tbr, 30 tbn, 30 tbc
Stream mapping:
  Stream #0:0 -> #0:0 (rawvideo (native) -> h264 (libx264))
Press [q] to stop, [?] for help
[libx264 @ 0x55a8c5c1ac60] using cpu capabilities: MMX2 SSE2Fast LZCNT SSSE3 SSE4.2 AVX
[libx264 @ 0x55a8c5c1ac60] profile High, level 2.1
Output #0, rawvideo, to 'RollerCoaster_Tile_14_480x240_x264_QP_20.h264':
  Metadata:
    encoder         : Lavf57.83.100
    Stream #0:0: Video: h264 (libx264), yuv420p, 480x240, q=-1--1, 30 fps, 30 tbn, 30 tbc
    Metadata:
      encoder         : Lavc57.107.100 libx264
    Side data:
      cpb: bitrate max/min/avg: 0/0/0 buffer size: 0 vbv_delay: -1
frame=  300 fps=0.0 q=26.0 LPSNR=Y:inf U:inf V:inf *:inf size=      17kB time=00:00:09.93 bitrate=  14.2kbits/s speed=36.8x    
video:17kB audio:0kB subtitle:0kB other streams:0kB global headers:0kB muxing overhead: 0.000000%
[libx264 @ 0x55a8c5c1ac60] frame I:2     Avg QP:18.79  size:  1034  PSNR Mean Y:57.60 U:60.72 V:64.04 Avg:58.64 Global:58.64
[libx264 @ 0x55a8c5c1ac60] frame P:76    Avg QP:19.53  size:   150  PSNR Mean Y:56.87 U:59.17 V:62.73 Avg:57.78 Global:57.73
[libx264 @ 0x55a8c5c1ac60] frame B:222   Avg QP:25.56  size:    19  PSNR Mean Y:56.90 U:58.88 V:62.43 Avg:57.75 Global:57.72
[libx264 @ 0x55a8c5c1ac60] consecutive B-frames:  1.3%  0.0%  0.0% 98.7%
[libx264 @ 0x55a8c5c1ac60] mb I  I16..4: 88.4% 11.4%  0.1%
[libx264 @ 0x55a8c5c1ac60] mb P  I16..4:  5.0%  0.9%  0.0%  P16..4:  7.4%  0.5%  0.1%  0.0%  0.0%    skip:86.2%
[libx264 @ 0x55a8c5c1ac60] mb B  I16..4:  0.0%  0.0%  0.0%  B16..8:  0.8%  0.0%  0.0%  direct: 0.0%  skip:99.2%  L0:69.2% L1:30.5% BI: 0.3%
[libx264 @ 0x55a8c5c1ac60] 8x8 transform intra:13.7% inter:99.7%
[libx264 @ 0x55a8c5c1ac60] coded y,uvDC,uvAC intra: 1.6% 9.7% 0.0% inter: 0.1% 0.4% 0.0%
[libx264 @ 0x55a8c5c1ac60] i16 v,h,dc,p: 39% 47%  7%  7%
[libx264 @ 0x55a8c5c1ac60] i8 v,h,dc,ddl,ddr,vr,hd,vl,hu:  7% 33% 59%  0%  0%  0%  0%  0%  0%
[libx264 @ 0x55a8c5c1ac60] i4 v,h,dc,ddl,ddr,vr,hd,vl,hu:  0% 75% 25%  0%  0%  0%  0%  0%  0%
[libx264 @ 0x55a8c5c1ac60] i8c dc,h,v,p: 73% 18%  8%  1%
[libx264 @ 0x55a8c5c1ac60] Weighted P-Frames: Y:0.0% UV:0.0%
[libx264 @ 0x55a8c5c1ac60] ref P L0: 88.7%  0.5%  7.5%  3.3%
[libx264 @ 0x55a8c5c1ac60] ref B L0: 95.0%  2.9%  2.1%
[libx264 @ 0x55a8c5c1ac60] ref B L1: 95.3%  4.7%
[libx264 @ 0x55a8c5c1ac60] PSNR Mean Y:56.897 U:58.965 V:62.516 Avg:57.766 Global:57.727 kb/s:14.10
